<svg xmlns="http://www.w3.org/2000/svg" width="735" height="120" viewBox="0 0 735 120"><rect width="100%" height="100%" fill="#DDDDDD"/><path fill="#999999" d="M233.265 38.31h29.97v3.21q0 1.44-.3 2.33-.3.88-.6 1.48l-16.44 33.84q-.51 1.05-1.44 1.79-.93.73-2.49.73h-5.37l16.77-33.15q.57-1.02 1.13-1.87.55-.86 1.24-1.64h-20.76q-.69 0-1.2-.51t-.51-1.2v-5.01Zm39.15 12.78-3.9-.69q.45-3.12 1.74-5.48 1.29-2.35 3.22-3.93 1.94-1.57 4.44-2.36 2.51-.8 5.39-.8 3 0 5.42.86 2.41.85 4.12 2.37 1.71 1.51 2.63 3.55.91 2.04.91 4.41 0 2.07-.47 3.65-.46 1.57-1.33 2.74-.87 1.17-2.16 1.98t-2.91 1.35q3.9 1.23 5.82 3.75 1.92 2.52 1.92 6.33 0 3.24-1.2 5.73t-3.24 4.18q-2.04 1.7-4.73 2.57-2.68.87-5.68.87-3.27 0-5.7-.75t-4.23-2.22q-1.8-1.47-3.06-3.6t-2.16-4.92l3.27-1.35q1.29-.54 2.42-.28 1.12.25 1.63 1.21.54 1.05 1.19 2.07.64 1.02 1.54 1.82.9.79 2.11 1.29 1.22.49 2.9.49 1.89 0 3.3-.62 1.41-.61 2.36-1.6.94-.99 1.41-2.21.46-1.21.46-2.44 0-1.56-.33-2.83-.33-1.28-1.38-2.18-1.05-.9-3.01-1.41-1.97-.51-5.27-.51v-5.28q2.73-.03 4.53-.51 1.8-.48 2.86-1.33 1.07-.86 1.49-2.06.42-1.2.42-2.64 0-3.06-1.71-4.65-1.71-1.59-4.56-1.59-1.32 0-2.43.38-1.11.37-1.99 1.04-.89.68-1.49 1.58t-.9 1.98q-.51 1.38-1.33 1.83-.83.45-2.33.21Zm41.37-6.06-1.53 9.03q1.44-.3 2.76-.43 1.32-.14 2.55-.14 3.42 0 6.03 1.02 2.61 1.02 4.38 2.82 1.77 1.8 2.67 4.22.9 2.41.9 5.2 0 3.45-1.22 6.3-1.21 2.85-3.37 4.88-2.16 2.02-5.12 3.13-2.95 1.11-6.43 1.11-2.04 0-3.87-.42t-3.44-1.12q-1.6-.71-2.97-1.63-1.36-.91-2.44-1.93l2.28-3.15q.72-1.02 1.89-1.02.75 0 1.53.48t1.78 1.05q1.01.57 2.38 1.05 1.36.48 3.28.48 2.04 0 3.6-.66t2.59-1.84q1.04-1.19 1.56-2.82.53-1.64.53-3.56 0-3.54-2.06-5.53-2.05-2-6.07-2-3.09 0-6.33 1.14l-4.62-1.32 3.6-21.06h21.42v3.15q0 1.59-.99 2.58t-3.36.99h-11.91Zm67.23 26.73-3.93 3.87-10.17-10.17-10.26 10.23-3.93-3.87 10.26-10.29-9.78-9.78 3.9-3.9 9.78 9.78 9.72-9.72 3.96 3.9-9.75 9.75 10.2 10.2Zm41.07 4.38h7.8v5.55h-24v-5.55h8.79V50.85q0-1.5.09-3.09l-6.24 5.22q-.54.42-1.07.53-.52.1-.99.01-.46-.09-.82-.31-.36-.23-.54-.5l-2.34-3.21 13.23-11.25h6.09v37.89Zm29.85-1.35h11.13q1.2 0 1.9.68.71.67.71 1.78v4.44h-29.76v-2.46q0-.75.31-1.58.32-.82 1.01-1.48l13.17-13.2q1.65-1.68 2.95-3.21 1.31-1.53 2.18-3.03.87-1.5 1.33-3.04.47-1.55.47-3.26 0-1.56-.45-2.74-.45-1.19-1.28-2-.82-.81-1.98-1.21-1.15-.41-2.59-.41-1.32 0-2.45.38-1.12.37-1.99 1.04-.87.68-1.47 1.58t-.9 1.98q-.51 1.38-1.32 1.83-.81.45-2.34.21l-3.9-.69q.45-3.12 1.74-5.48 1.29-2.35 3.22-3.93 1.94-1.57 4.44-2.36 2.51-.8 5.39-.8 3 0 5.49.88 2.49.89 4.26 2.51 1.77 1.62 2.76 3.9.99 2.28.99 5.07 0 2.4-.71 4.44-.7 2.04-1.89 3.9-1.18 1.86-2.77 3.6t-3.33 3.54l-9.78 9.99q1.41-.42 2.8-.64 1.4-.23 2.66-.23Zm49.8-14.79q0 5.67-1.22 9.86-1.21 4.18-3.36 6.91-2.14 2.73-5.07 4.07-2.92 1.33-6.31 1.33-3.39 0-6.29-1.33-2.89-1.34-5.02-4.07-2.13-2.73-3.33-6.91-1.2-4.19-1.2-9.86 0-5.7 1.2-9.87 1.2-4.17 3.33-6.9 2.13-2.73 5.02-4.06 2.9-1.34 6.29-1.34t6.31 1.34q2.93 1.33 5.07 4.06 2.15 2.73 3.36 6.9 1.22 4.17 1.22 9.87Zm-7.65 0q0-4.71-.69-7.8t-1.85-4.92q-1.15-1.83-2.65-2.57-1.5-.73-3.12-.73-1.59 0-3.08.73-1.48.74-2.62 2.57-1.14 1.83-1.82 4.92-.67 3.09-.67 7.8t.67 7.8q.68 3.09 1.82 4.92 1.14 1.83 2.62 2.57 1.49.73 3.08.73 1.62 0 3.12-.73 1.5-.74 2.65-2.57 1.16-1.83 1.85-4.92.69-3.09.69-7.8Z"/></svg>