<svg xmlns="http://www.w3.org/2000/svg" width="735" height="490" viewBox="0 0 735 490"><rect width="100%" height="100%" fill="#DDDDDD"/><path fill="#999999" d="M148.25 209.58h48.95v5.24q0 2.35-.49 3.8-.49 1.44-.98 2.42l-26.85 55.27q-.83 1.72-2.35 2.92t-4.07 1.2h-8.77l27.39-54.15q.93-1.66 1.84-3.06.91-1.39 2.03-2.67h-33.9q-1.13 0-1.96-.83-.84-.83-.84-1.96v-8.18Zm63.95 20.87-6.37-1.13q.73-5.09 2.84-8.94 2.11-3.85 5.27-6.42 3.16-2.57 7.25-3.87 4.09-1.3 8.79-1.3 4.91 0 8.85 1.4 3.94 1.4 6.74 3.87 2.79 2.47 4.28 5.81 1.5 3.33 1.5 7.2 0 3.38-.76 5.95-.76 2.57-2.18 4.49-1.42 1.91-3.53 3.23t-4.75 2.21q6.37 2 9.5 6.12 3.14 4.12 3.14 10.34 0 5.29-1.96 9.36-1.96 4.06-5.29 6.83-3.33 2.77-7.72 4.19-4.39 1.42-9.29 1.42-5.34 0-9.31-1.22-3.96-1.23-6.9-3.63-2.94-2.4-5-5.88t-3.53-8.03l5.34-2.21q2.11-.88 3.95-.46 1.83.41 2.67 1.98.88 1.72 1.93 3.38 1.05 1.67 2.52 2.97 1.47 1.29 3.46 2.1 1.98.81 4.73.81 3.08 0 5.39-1 2.3-1.01 3.84-2.62 1.55-1.62 2.31-3.61.76-1.98.76-3.99 0-2.55-.54-4.63t-2.26-3.55q-1.71-1.47-4.92-2.31-3.21-.83-8.6-.83v-8.62q4.46-.05 7.4-.84 2.94-.78 4.68-2.18 1.74-1.39 2.42-3.35.69-1.96.69-4.31 0-5-2.79-7.6-2.8-2.6-7.45-2.6-2.16 0-3.97.62-1.81.61-3.26 1.71-1.44 1.1-2.42 2.57-.98 1.47-1.47 3.24-.84 2.25-2.18 2.99-1.35.73-3.8.34Zm67.57-9.9-2.5 14.75q2.35-.49 4.51-.71 2.15-.22 4.16-.22 5.59 0 9.85 1.67 4.26 1.66 7.16 4.6 2.89 2.94 4.36 6.89 1.47 3.94 1.47 8.5 0 5.63-1.99 10.29-1.98 4.65-5.51 7.96-3.53 3.31-8.35 5.12-4.83 1.81-10.52 1.81-3.33 0-6.32-.68-2.99-.69-5.61-1.84-2.62-1.15-4.85-2.65-2.23-1.49-3.99-3.16l3.72-5.14q1.18-1.67 3.09-1.67 1.22 0 2.5.79 1.27.78 2.91 1.71 1.65.93 3.88 1.72 2.22.78 5.36.78 3.33 0 5.88-1.08t4.24-3.01q1.69-1.94 2.55-4.61.85-2.67.85-5.8 0-5.78-3.35-9.04-3.36-3.26-9.92-3.26-5.05 0-10.34 1.86l-7.55-2.16 5.88-34.39h34.99v5.14q0 2.6-1.62 4.21-1.62 1.62-5.49 1.62h-19.45Zm109.81 43.66-6.42 6.32-16.61-16.61-16.76 16.71-6.42-6.32 16.76-16.81-15.98-15.97 6.37-6.37 15.98 15.97 15.87-15.87 6.47 6.37-15.92 15.92 16.66 16.66Zm42.43-10.49h21.56v-23.17q0-3.28.44-7.25l-22 30.42Zm32.1 0h8.91v7.01q0 .98-.63 1.69-.64.71-1.81.71h-6.47v17.3h-10.54v-17.3h-29.89q-1.22 0-2.15-.76-.94-.76-1.18-1.88l-1.27-6.13 33.56-44.83h11.47v44.19Zm27.58-22.88q0 5.93 3.07 9.04 3.06 3.11 8.69 3.11 2.94 0 5.25-.93 2.3-.93 3.87-2.54 1.57-1.62 2.37-3.83.81-2.2.81-4.75 0-2.89-.88-5.17t-2.5-3.85q-1.61-1.56-3.84-2.4-2.23-.83-4.88-.83-2.74 0-4.95.91-2.2.9-3.77 2.52-1.57 1.62-2.4 3.85-.84 2.23-.84 4.87Zm-5.93 49.59 22.01-27.49q.83-1.03 1.56-2.01.74-.98 1.43-1.96-2.46 1.57-5.4 2.38-2.94.81-6.17.81-3.67 0-7.2-1.28-3.53-1.27-6.27-3.84-2.75-2.58-4.44-6.37-1.69-3.8-1.69-8.9 0-4.75 1.77-8.92 1.76-4.16 4.94-7.3 3.19-3.13 7.65-4.95 4.46-1.81 9.85-1.81 5.44 0 9.77 1.72 4.34 1.71 7.4 4.8 3.06 3.09 4.71 7.4 1.64 4.31 1.64 9.45 0 3.29-.57 6.23-.56 2.94-1.59 5.66t-2.5 5.31q-1.47 2.6-3.28 5.15l-16.22 23.13q-.83 1.17-2.5 1.98t-3.77.81h-11.13ZM586.75 245q0 9.26-1.98 16.1-1.99 6.83-5.49 11.29-3.5 4.46-8.28 6.64-4.78 2.18-10.31 2.18-5.54 0-10.27-2.18-4.73-2.18-8.21-6.64-3.48-4.46-5.44-11.29-1.96-6.84-1.96-16.1 0-9.31 1.96-16.12 1.96-6.81 5.44-11.27 3.48-4.46 8.21-6.64 4.73-2.18 10.27-2.18 5.53 0 10.31 2.18t8.28 6.64q3.5 4.46 5.49 11.27 1.98 6.81 1.98 16.12Zm-12.49 0q0-7.69-1.13-12.74-1.13-5.04-3.01-8.03-1.89-2.99-4.34-4.19-2.45-1.2-5.09-1.2-2.6 0-5.03 1.2-2.42 1.2-4.28 4.19-1.87 2.99-2.97 8.03-1.1 5.05-1.1 12.74 0 7.7 1.1 12.74 1.1 5.05 2.97 8.04 1.86 2.99 4.28 4.19 2.43 1.2 5.03 1.2 2.64 0 5.09-1.2 2.45-1.2 4.34-4.19 1.88-2.99 3.01-8.04 1.13-5.04 1.13-12.74Z"/></svg>