<svg xmlns="http://www.w3.org/2000/svg" width="315" height="65" viewBox="0 0 315 65"><rect width="100%" height="100%" fill="#DDDDDD"/><path fill="#999999" d="m96.36 27.6-2.15-.38q.25-1.72.96-3.01.71-1.3 1.77-2.16 1.07-.87 2.45-1.31 1.37-.43 2.96-.43 1.65 0 2.98.47 1.32.47 2.26 1.3.94.83 1.45 1.96.5 1.12.5 2.42 0 1.14-.25 2.01-.26.86-.74 1.51-.48.64-1.19 1.08-.71.45-1.6.75 2.15.67 3.2 2.06 1.06 1.39 1.06 3.48 0 1.78-.66 3.15-.66 1.37-1.78 2.3-1.12.94-2.6 1.42-1.48.47-3.13.47-1.8 0-3.13-.41-1.34-.41-2.33-1.22t-1.68-1.98q-.7-1.17-1.19-2.71l1.8-.74q.71-.3 1.33-.15.62.14.9.66.29.58.65 1.14.35.56.85 1 .49.44 1.16.71.67.27 1.59.27 1.04 0 1.82-.34.77-.33 1.29-.88.52-.54.78-1.21.25-.67.25-1.35 0-.85-.18-1.56-.18-.7-.76-1.19-.57-.5-1.65-.78-1.09-.28-2.9-.28v-2.9q1.5-.02 2.49-.28.99-.27 1.58-.74.58-.47.81-1.13.23-.66.23-1.45 0-1.68-.94-2.56-.94-.87-2.5-.87-.73 0-1.34.21-.61.2-1.1.57-.48.37-.81.87-.33.49-.5 1.09-.28.76-.73 1-.46.25-1.28.12Zm28 13.78h4.29v3.05h-13.2v-3.05h4.83V27.47q0-.83.05-1.7l-3.43 2.87q-.3.23-.59.29-.28.06-.54.01-.26-.05-.45-.18-.2-.12-.3-.27l-1.29-1.76 7.28-6.19h3.35v20.84Zm13.89-17.11-.84 4.96q.79-.16 1.52-.24.72-.07 1.4-.07 1.88 0 3.32.56 1.43.56 2.41 1.55.97.99 1.46 2.32.5 1.33.5 2.86 0 1.9-.67 3.47-.67 1.57-1.86 2.68-1.18 1.11-2.81 1.72-1.62.61-3.54.61-1.12 0-2.13-.23-1-.23-1.89-.62-.88-.38-1.63-.89-.75-.5-1.34-1.06l1.25-1.73q.4-.56 1.04-.56.41 0 .84.26t.98.58q.56.31 1.31.57.75.27 1.8.27 1.13 0 1.98-.36.86-.37 1.43-1.02t.86-1.55q.29-.9.29-1.96 0-1.94-1.13-3.04t-3.34-1.1q-1.7 0-3.49.63l-2.54-.73 1.98-11.58h11.78v1.73q0 .88-.54 1.42-.54.55-1.85.55h-6.55Zm36.98 14.7-2.16 2.13-5.6-5.6-5.64 5.63-2.16-2.13 5.64-5.66-5.38-5.38 2.15-2.14 5.38 5.38 5.34-5.35 2.18 2.15-5.36 5.36 5.61 5.61Zm25.49-18.4-7.08 8.66-.82 1.03q.69-.35 1.49-.54.8-.19 1.72-.19 1.36 0 2.64.45 1.27.44 2.25 1.34.97.9 1.57 2.24.59 1.33.59 3.11 0 1.67-.61 3.13t-1.72 2.55q-1.1 1.09-2.66 1.72-1.56.62-3.44.62-1.92 0-3.43-.61-1.52-.61-2.59-1.7-1.08-1.1-1.65-2.64-.57-1.55-.57-3.43 0-1.68.69-3.45.68-1.78 2.12-3.69l5.69-7.64q.3-.4.87-.68.57-.28 1.31-.28h3.63Zm-6.15 20.79q.97 0 1.79-.33.81-.33 1.4-.92.58-.6.91-1.4.33-.8.33-1.74 0-1.02-.31-1.84-.31-.81-.89-1.38-.58-.57-1.39-.87-.8-.3-1.78-.3-.97 0-1.76.33-.8.33-1.36.92-.56.58-.87 1.38-.31.8-.31 1.73 0 .99.27 1.81.27.81.81 1.39.53.58 1.32.9.8.32 1.84.32Zm17.14-17.09-.84 4.96q.79-.16 1.52-.24.72-.07 1.4-.07 1.88 0 3.31.56 1.44.56 2.41 1.55.98.99 1.47 2.32.5 1.33.5 2.86 0 1.9-.67 3.47-.67 1.57-1.86 2.68t-2.81 1.72q-1.63.61-3.54.61-1.12 0-2.13-.23-1-.23-1.89-.62-.88-.38-1.63-.89-.75-.5-1.35-1.06l1.26-1.73q.39-.56 1.04-.56.41 0 .84.26t.98.58q.55.31 1.3.57.76.27 1.81.27 1.12 0 1.98-.36.86-.37 1.43-1.02t.86-1.55q.29-.9.29-1.96 0-1.94-1.13-3.04-1.14-1.1-3.35-1.1-1.7 0-3.48.63l-2.54-.73 1.98-11.58h11.78v1.73q0 .88-.54 1.42-.55.55-1.85.55h-6.55Z"/></svg>