<svg xmlns="http://www.w3.org/2000/svg" width="215" height="145" viewBox="0 0 215 145"><rect width="100%" height="100%" fill="#DDDDDD"/><path fill="#999999" d="M50.68 79.655h5.38q.58 0 .92.32.34.33.34.86v2.15H42.94v-1.19q0-.36.15-.76t.48-.72l6.37-6.38q.8-.81 1.43-1.55.63-.74 1.05-1.46.42-.73.64-1.48.23-.74.23-1.57 0-.75-.22-1.33-.22-.57-.62-.96-.39-.39-.95-.59-.56-.19-1.26-.19-.63 0-1.18.18-.54.18-.96.51-.42.32-.71.76-.29.43-.44.95-.24.67-.64.89-.39.22-1.13.1l-1.88-.33q.22-1.51.84-2.65t1.56-1.9q.93-.76 2.14-1.14 1.21-.39 2.61-.39 1.45 0 2.65.43t2.06 1.21q.85.78 1.33 1.88.48 1.11.48 2.45 0 1.16-.34 2.15t-.91 1.89q-.58.9-1.34 1.74-.77.84-1.61 1.71l-4.73 4.83q.68-.21 1.35-.32.68-.1 1.29-.1Zm19.21.65h3.77v2.68h-11.6v-2.68h4.25v-12.23q0-.72.04-1.49l-3.01 2.52q-.26.21-.52.26-.25.05-.48 0-.22-.04-.4-.15-.17-.11-.26-.24l-1.13-1.55 6.4-5.44h2.94v18.32Zm12.21-15.04-.74 4.37q.7-.15 1.33-.21.64-.07 1.24-.07 1.65 0 2.91.49 1.26.5 2.12 1.37.85.87 1.29 2.03.43 1.17.43 2.52 0 1.67-.58 3.04-.59 1.38-1.63 2.36-1.05.98-2.48 1.52-1.43.53-3.11.53-.98 0-1.87-.2-.88-.2-1.66-.54-.77-.35-1.43-.79-.66-.44-1.19-.93l1.11-1.53q.34-.49.91-.49.36 0 .74.23.38.24.86.51.49.28 1.15.51.66.23 1.59.23.98 0 1.74-.32.75-.32 1.25-.89.5-.57.75-1.36.26-.79.26-1.72 0-1.71-1-2.68-.99-.96-2.93-.96-1.5 0-3.06.55l-2.23-.64 1.74-10.18h10.35v1.53q0 .76-.48 1.24t-1.62.48H82.1Zm32.49 12.92-1.9 1.87-4.91-4.91-4.96 4.94-1.9-1.87 4.96-4.97-4.73-4.73 1.89-1.89 4.72 4.73 4.7-4.7 1.92 1.89-4.72 4.71 4.93 4.93Zm19.85 2.12h3.77v2.68h-11.6v-2.68h4.25v-12.23q0-.72.05-1.49l-3.02 2.52q-.26.21-.51.26-.26.05-.48 0-.23-.04-.4-.15-.18-.11-.26-.24l-1.13-1.55 6.39-5.44h2.94v18.32Zm9.53-5.22h6.38v-6.86q0-.97.13-2.15l-6.51 9.01Zm9.5 0h2.64v2.07q0 .29-.19.5-.19.21-.54.21h-1.91v5.12h-3.12v-5.12h-8.84q-.37 0-.64-.22-.28-.23-.35-.56l-.38-1.81 9.94-13.27h3.39v13.08Zm10-9.82-.74 4.37q.7-.15 1.34-.21.64-.07 1.23-.07 1.65 0 2.92.49 1.26.5 2.11 1.37.86.87 1.29 2.03.44 1.17.44 2.52 0 1.67-.59 3.04-.59 1.38-1.63 2.36t-2.47 1.52q-1.43.53-3.11.53-.99 0-1.87-.2-.89-.2-1.66-.54-.78-.35-1.44-.79-.66-.44-1.18-.93l1.1-1.53q.35-.49.91-.49.37 0 .74.23.38.24.87.51.48.28 1.14.51.66.23 1.59.23.99 0 1.74-.32t1.25-.89q.5-.57.76-1.36.25-.79.25-1.72 0-1.71-.99-2.68-.99-.96-2.94-.96-1.49 0-3.06.55l-2.23-.64 1.74-10.18h10.35v1.53q0 .76-.48 1.24-.47.48-1.62.48h-5.76Z"/></svg>